<svg width="56" height="63" viewBox="0 0 56 63" fill="none" xmlns="http://www.w3.org/2000/svg">
<g filter="url(#filter0_bd_5496_35660)">
<path d="M28 53L24 46L32 46L28 53Z" fill="#E81D25"/>
<rect x="8" y="6" width="40" height="40" rx="4" fill="#E81D25"/>
<rect x="12.5" y="10.5" width="31" height="31" rx="3.5" stroke="white"/>
<rect x="10" y="17" width="36" height="18" fill="#E81D25"/>
<path d="M36.9583 29.7341H36.9564C36.9564 29.7341 36.9546 29.7433 36.9509 29.747C36.949 29.747 36.949 29.7488 36.949 29.7488C36.9472 29.7507 36.9472 29.7562 36.9434 29.7581L34.9271 33.2045C34.9271 33.2045 34.9271 33.2063 34.9252 33.2063C34.7728 33.4666 34.4086 33.6752 34.1057 33.6752H32.0856L31.5058 30.8583L29.666 21.9459L31.8273 20.0391L36.9453 28.8111C36.9453 28.8111 36.9453 28.8129 36.9472 28.8129C36.949 28.8185 36.9527 28.8203 36.9527 28.8258C37.0921 29.0806 37.0958 29.4775 36.9602 29.7341H36.9583Z" fill="#F0BBBD"/>
<path d="M32.0905 33.6758L21.8991 33.6813C21.8656 33.6813 21.8322 33.6813 21.7969 33.6758H32.0886H32.0905Z" fill="#481117"/>
<path d="M31.8354 20.0373L29.6741 21.9442L22.826 27.9842L20.0645 27.0704L25.1694 18.291C25.1694 18.291 25.1713 18.2855 25.175 18.2836C25.3274 18.0271 25.6954 17.8203 25.9946 17.8203L30.0049 17.8295C30.3023 17.8295 30.6702 18.0381 30.8226 18.2929C30.8226 18.2947 30.8245 18.2947 30.8245 18.2984L31.8373 20.0373H31.8354Z" fill="white"/>
<path opacity="0.5" d="M36.9583 29.7341H36.9564C36.9564 29.7341 36.9546 29.7433 36.9509 29.747C36.949 29.747 36.949 29.7488 36.949 29.7488C36.9472 29.7507 36.9472 29.7562 36.9434 29.7581L34.9271 33.2045C34.9271 33.2045 34.9271 33.2063 34.9252 33.2063C34.7728 33.4666 34.4086 33.6752 34.1057 33.6752H32.0856L31.5058 30.8583L29.666 21.9459L31.8273 20.0391L36.9453 28.8111C36.9453 28.8111 36.9453 28.8129 36.9472 28.8129C36.949 28.8185 36.9527 28.8203 36.9527 28.8258C37.0921 29.0806 37.0958 29.4775 36.9602 29.7341H36.9583Z" fill="url(#paint0_linear_5496_35660)"/>
<path d="M32.0917 33.6791H21.8557C21.5528 33.6791 21.183 33.4649 21.0343 33.2028L19.0496 29.7638C18.9028 29.5072 18.9028 29.0845 19.0496 28.826L20.0605 27.0742L22.8221 27.988L31.5119 30.8603L32.0917 33.6772V33.6791Z" fill="#EF7683"/>
<path opacity="0.5" d="M32.0917 33.6791H21.8557C21.5528 33.6791 21.183 33.4649 21.0343 33.2028L19.0496 29.7638C18.9028 29.5072 18.9028 29.0845 19.0496 28.826L20.0605 27.0742L22.8221 27.988L31.5119 30.8603L32.0917 33.6772V33.6791Z" fill="url(#paint1_linear_5496_35660)"/>
</g>
<defs>
<filter id="filter0_bd_5496_35660" x="0" y="0" width="56" height="63" filterUnits="userSpaceOnUse" color-interpolation-filters="sRGB">
<feFlood flood-opacity="0" result="BackgroundImageFix"/>
<feGaussianBlur in="BackgroundImageFix" stdDeviation="3"/>
<feComposite in2="SourceAlpha" operator="in" result="effect1_backgroundBlur_5496_35660"/>
<feColorMatrix in="SourceAlpha" type="matrix" values="0 0 0 0 0 0 0 0 0 0 0 0 0 0 0 0 0 0 127 0" result="hardAlpha"/>
<feOffset dy="2"/>
<feGaussianBlur stdDeviation="4"/>
<feComposite in2="hardAlpha" operator="out"/>
<feColorMatrix type="matrix" values="0 0 0 0 0 0 0 0 0 0 0 0 0 0 0 0 0 0 0.08 0"/>
<feBlend mode="normal" in2="effect1_backgroundBlur_5496_35660" result="effect2_dropShadow_5496_35660"/>
<feBlend mode="normal" in="SourceGraphic" in2="effect2_dropShadow_5496_35660" result="shape"/>
</filter>
<linearGradient id="paint0_linear_5496_35660" x1="28.0641" y1="24.6927" x2="30.5148" y2="26.0746" gradientUnits="userSpaceOnUse">
<stop stop-color="white"/>
<stop offset="1" stop-color="white" stop-opacity="0"/>
</linearGradient>
<linearGradient id="paint1_linear_5496_35660" x1="19.2614" y1="28.2999" x2="31.3091" y2="34.9248" gradientUnits="userSpaceOnUse">
<stop stop-color="white"/>
<stop offset="1" stop-color="white" stop-opacity="0"/>
</linearGradient>
</defs>
</svg>
